{
  "accessors": [
    {
      "bufferView": 1,
      "componentType": 5126,
      "count": 3372,
      "max": [
        1.5715123414993286,
        1.8330909013748169,
        0.34611320495605469
      ],
      "min": [
        -1.5709335803985596,
        -0.18785524368286133,
        -0.46168947219848633
      ],
      "type": "VEC3"
    },
    {
      "bufferView": 1,
      "byteOffset": 40464,
      "componentType": 5126,
      "count": 3372,
      "max": [
        1,
        1,
        0.99998021125793457
      ],
      "min": [
        -1,
        -1,
        -0.99999970197677612
      ],
      "type": "VEC3"
    },
    {
      "bufferView": 0,
      "componentType": 5125,
      "count": 5154,
      "max": [
        3371
      ],
      "min": [
        0
      ],
      "type": "SCALAR"
    },
    {
      "bufferView": 1,
      "byteOffset": 80928,
      "componentType": 5126,
      "count": 748,
      "max": [
        1.0098637342453003,
        -0.017409324645996094,
        0.32121133804321289
      ],
      "min": [
        -1.0092836618423462,
        -0.17268431186676025,
        -0.43669819831848145
      ],
      "type": "VEC3"
    },
    {
      "bufferView": 1,
      "byteOffset": 89904,
      "componentType": 5126,
      "count": 748,
      "max": [
        0.8117440938949585,
        0.99985337257385254,
        0.70602810382843018
      ],
      "min": [
        -0.75952863693237305,
        -0.99991333484649658,
        -0.7188752293586731
      ],
      "type": "VEC3"
    },
    {
      "bufferView": 0,
      "byteOffset": 20616,
      "componentType": 5125,
      "count": 3702,
      "max": [
        747
      ],
      "min": [
        0
      ],
      "type": "SCALAR"
    }
  ],
  "asset": {
    "extras": {
      "author": "wewwuworks (https://sketchfab.com/Ensign_Crusher)",
      "license": "CC-BY-4.0 (http://creativecommons.org/licenses/by/4.0/)",
      "source": "https://sketchfab.com/3d-models/hat-aviators-1f2348e1ac184a2bb79b4c2f0c4ad48b",
      "title": "Hat Aviators"
    },
    "generator": "Sketchfab-7.54.0",
    "version": "2.0"
  },
  "bufferViews": [
    {
      "buffer": 0,
      "byteLength": 35424,
      "byteOffset": 0,
      "name": "floatBufferViews",
      "target": 34963
    },
    {
      "buffer": 0,
      "byteLength": 98880,
      "byteOffset": 35424,
      "byteStride": 12,
      "name": "floatBufferViews",
      "target": 34962
    }
  ],
  "buffers": [
    {
      "byteLength": 134304,
      "uri": "scene.bin"
    }
  ],
  "materials": [
    {
      "doubleSided": true,
      "emissiveFactor": [
        0,
        0,
        0
      ],
      "name": "Plastic.001",
      "pbrMetallicRoughness": {
        "baseColorFactor": [
          0.0607194,
          0.0607194,
          0.0607194,
          1
        ],
        "metallicFactor": 0,
        "roughnessFactor": 0.82394172574614266
      }
    },
    {
      "doubleSided": true,
      "emissiveFactor": [
        0,
        0,
        0
      ],
      "name": "Glass.001",
      "pbrMetallicRoughness": {
        "baseColorFactor": [
          0.0189906,
          0.061284900000000003,
          0.069977899999999996,
          1
        ],
        "metallicFactor": 0,
        "roughnessFactor": 0.82394172574614266
      }
    }
  ],
  "meshes": [
    {
      "name": "Aviators_Plastic.001_0",
      "primitives": [
        {
          "attributes": {
            "NORMAL": 1,
            "POSITION": 0
          },
          "indices": 2,
          "material": 0,
          "mode": 4
        }
      ]
    },
    {
      "name": "Aviators_Glass.001_0",
      "primitives": [
        {
          "attributes": {
            "NORMAL": 4,
            "POSITION": 3
          },
          "indices": 5,
          "material": 1,
          "mode": 4
        }
      ]
    }
  ],
  "nodes": [
    {
      "children": [
        1
      ],
      "name": "RootNode (gltf orientation matrix)",
      "rotation": [
        -0.70710678118654746,
        -0,
        -0,
        0.70710678118654757
      ]
    },
    {
      "children": [
        2
      ],
      "name": "RootNode (model correction matrix)"
    },
    {
      "children": [
        3
      ],
      "matrix": [
        1,
        0,
        0,
        0,
        0,
        0,
        1,
        0,
        0,
        -1,
        0,
        0,
        0,
        0,
        0,
        1
      ],
      "name": "21f11a45b0a141c2bbdf943a3161d925.fbx"
    },
    {
      "children": [
        4
      ],
      "name": "RootNode"
    },
    {
      "children": [
        5,
        6
      ],
      "matrix": [
        100,
        0,
        0,
        0,
        0,
        -1.6292067939183141e-05,
        -99.999999999998678,
        0,
        0,
        99.999999999998678,
        -1.6292067939183141e-05,
        0,
        0,
        -2.384185791015625e-05,
        0,
        1
      ],
      "name": "Aviators"
    },
    {
      "mesh": 0,
      "name": "Aviators_Plastic.001_0"
    },
    {
      "mesh": 1,
      "name": "Aviators_Glass.001_0"
    }
  ],
  "scene": 0,
  "scenes": [
    {
      "name": "OSG_Scene",
      "nodes": [
        0
      ]
    }
  ]
}

